{
    "patcher": {
        "fileversion": 1,
        "appversion": {
            "major": 9,
            "minor": 1,
            "revision": 3,
            "architecture": "x64",
            "modernui": 1
        },
        "classnamespace": "box",
        "rect": [ 33.0, 81.0, 1059.0, 748.0 ],
        "boxes": [
            {
                "box": {
                    "bgcolor": [ 0.094, 0.5, 2.4, 1.0 ],
                    "id": "obj-209",
                    "maxclass": "button",
                    "numinlets": 1,
                    "numoutlets": 1,
                    "outlettype": [ "bang" ],
                    "parameter_enable": 0,
                    "patching_rect": [ 675.0, 459.0, 75.10359573364258, 75.10359573364258 ]
                }
            },
            {
                "box": {
                    "bgcolor": [ 0.094, 0.5, 2.4, 1.0 ],
                    "id": "obj-207",
                    "maxclass": "toggle",
                    "numinlets": 1,
                    "numoutlets": 1,
                    "outlettype": [ "int" ],
                    "parameter_enable": 0,
                    "patching_rect": [ 676.0, 563.0, 99.0, 99.0 ]
                }
            },
            {
                "box": {
                    "bgcolor": [ 0.094, 0.5, 2.4, 1.0 ],
                    "floatoutput": 1,
                    "id": "obj-205",
                    "maxclass": "slider",
                    "numinlets": 1,
                    "numoutlets": 1,
                    "outlettype": [ "" ],
                    "parameter_enable": 0,
                    "patching_rect": [ 866.0, 466.8929121494293, 59.01639175415039, 127.04917669296265 ],
                    "size": 1000.0
                }
            },
            {
                "box": {
                    "format": 6,
                    "id": "obj-204",
                    "maxclass": "flonum",
                    "numinlets": 1,
                    "numoutlets": 2,
                    "outlettype": [ "", "bang" ],
                    "parameter_enable": 0,
                    "patching_rect": [ 1003.2147301137447, 295.58471143245697, 50.0, 22.0 ]
                }
            },
            {
                "box": {
                    "format": 6,
                    "id": "obj-203",
                    "maxclass": "flonum",
                    "numinlets": 1,
                    "numoutlets": 2,
                    "outlettype": [ "", "bang" ],
                    "parameter_enable": 0,
                    "patching_rect": [ 951.2147301137447, 295.58471143245697, 50.0, 22.0 ]
                }
            },
            {
                "box": {
                    "format": 6,
                    "id": "obj-202",
                    "maxclass": "flonum",
                    "numinlets": 1,
                    "numoutlets": 2,
                    "outlettype": [ "", "bang" ],
                    "parameter_enable": 0,
                    "patching_rect": [ 922.7147301137447, 262.0, 50.0, 22.0 ]
                }
            },
            {
                "box": {
                    "bgcolor": [ 0.094, 0.5, 2.4, 1.0 ],
                    "id": "obj-200",
                    "maxclass": "slider",
                    "numinlets": 1,
                    "numoutlets": 1,
                    "outlettype": [ "" ],
                    "parameter_enable": 0,
                    "patching_rect": [ 962.0, 474.47579672187567, 96.0122741162777, 38.56569857895374 ]
                }
            },
            {
                "box": {
                    "id": "obj-196",
                    "maxclass": "newobj",
                    "numinlets": 1,
                    "numoutlets": 1,
                    "outlettype": [ "" ],
                    "patching_rect": [ 922.7147301137447, 367.59004709124565, 100.0, 22.0 ],
                    "text": "prepend bgcolor"
                }
            },
            {
                "box": {
                    "id": "obj-192",
                    "maxclass": "number",
                    "numinlets": 1,
                    "numoutlets": 2,
                    "outlettype": [ "", "bang" ],
                    "parameter_enable": 0,
                    "patching_rect": [ 836.999231338501, 295.58471143245697, 50.0, 22.0 ]
                }
            },
            {
                "box": {
                    "id": "obj-191",
                    "maxclass": "number",
                    "numinlets": 1,
                    "numoutlets": 2,
                    "outlettype": [ "", "bang" ],
                    "parameter_enable": 0,
                    "patching_rect": [ 836.999231338501, 271.58471143245697, 50.0, 22.0 ]
                }
            },
            {
                "box": {
                    "id": "obj-190",
                    "maxclass": "number",
                    "numinlets": 1,
                    "numoutlets": 2,
                    "outlettype": [ "", "bang" ],
                    "parameter_enable": 0,
                    "patching_rect": [ 826.749231338501, 241.7767105102539, 50.0, 22.0 ]
                }
            },
            {
                "box": {
                    "id": "obj-189",
                    "maxclass": "number",
                    "numinlets": 1,
                    "numoutlets": 2,
                    "outlettype": [ "", "bang" ],
                    "parameter_enable": 0,
                    "patching_rect": [ 768.9320755004883, 241.7767105102539, 50.0, 22.0 ]
                }
            },
            {
                "box": {
                    "id": "obj-187",
                    "maxclass": "button",
                    "numinlets": 1,
                    "numoutlets": 1,
                    "outlettype": [ "bang" ],
                    "parameter_enable": 0,
                    "patching_rect": [ 737.2168636322021, 240.7767105102539, 24.0, 24.0 ]
                }
            },
            {
                "box": {
                    "id": "obj-185",
                    "maxclass": "newobj",
                    "numinlets": 1,
                    "numoutlets": 0,
                    "patching_rect": [ 724.0997611880302, 369.52910536527634, 100.0, 22.0 ],
                    "text": "print"
                }
            },
            {
                "box": {
                    "id": "obj-184",
                    "maxclass": "number",
                    "numinlets": 1,
                    "numoutlets": 2,
                    "outlettype": [ "", "bang" ],
                    "parameter_enable": 0,
                    "patching_rect": [ 900.0000429153442, 205.17800331115723, 50.0, 22.0 ]
                }
            },
            {
                "box": {
                    "id": "obj-182",
                    "maxclass": "number",
                    "numinlets": 1,
                    "numoutlets": 2,
                    "outlettype": [ "", "bang" ],
                    "parameter_enable": 0,
                    "patching_rect": [ 758.5760879516602, 58.085495948791504, 50.0, 22.0 ]
                }
            },
            {
                "box": {
                    "id": "obj-180",
                    "maxclass": "message",
                    "numinlets": 2,
                    "numoutlets": 1,
                    "outlettype": [ "" ],
                    "patching_rect": [ 886.9747370481491, 41.17646813392639, 50.0, 22.0 ],
                    "text": "1.4 55"
                }
            },
            {
                "box": {
                    "id": "obj-178",
                    "maxclass": "message",
                    "numinlets": 2,
                    "numoutlets": 1,
                    "outlettype": [ "" ],
                    "patching_rect": [ 847.6640826165676, 80.25209605693817, 51.0, 22.0 ],
                    "text": "B cee"
                }
            },
            {
                "box": {
                    "id": "obj-177",
                    "maxclass": "message",
                    "numinlets": 2,
                    "numoutlets": 1,
                    "outlettype": [ "" ],
                    "patching_rect": [ 814.2052038311958, 44.53781247138977, 51.0, 22.0 ],
                    "text": "one two"
                }
            },
            {
                "box": {
                    "id": "obj-175",
                    "maxclass": "newobj",
                    "numinlets": 1,
                    "numoutlets": 2,
                    "outlettype": [ "", "bang" ],
                    "patching_rect": [ 1103.092369556427, 269.74788308143616, 100.0, 22.0 ],
                    "text": "t l b"
                }
            },
            {
                "box": {
                    "id": "obj-174",
                    "maxclass": "message",
                    "numinlets": 2,
                    "numoutlets": 1,
                    "outlettype": [ "" ],
                    "patching_rect": [ 1131.092369556427, 237.39494383335114, 72.0, 22.0 ],
                    "text": "bar 22 foo"
                }
            },
            {
                "box": {
                    "id": "obj-169",
                    "maxclass": "newobj",
                    "numinlets": 1,
                    "numoutlets": 0,
                    "patching_rect": [ 1075.4201024770737, 406.72266483306885, 100.0, 22.0 ],
                    "text": "print"
                }
            },
            {
                "box": {
                    "id": "obj-160",
                    "maxclass": "message",
                    "numinlets": 2,
                    "numoutlets": 1,
                    "outlettype": [ "" ],
                    "patching_rect": [ 958.467053771019, 52.09580773115158, 66.0, 22.0 ],
                    "text": "hello world"
                }
            },
            {
                "box": {
                    "id": "obj-159",
                    "maxclass": "message",
                    "numinlets": 2,
                    "numoutlets": 1,
                    "outlettype": [ "" ],
                    "patching_rect": [ 974.467053771019, 122.75448948144913, 50.0, 22.0 ],
                    "text": "print"
                }
            },
            {
                "box": {
                    "id": "obj-157",
                    "maxclass": "newobj",
                    "numinlets": 1,
                    "numoutlets": 0,
                    "patching_rect": [ 793.2039213180542, 195.79830765724182, 32.0, 22.0 ],
                    "text": "print"
                }
            },
            {
                "box": {
                    "floatoutput": 1,
                    "id": "obj-140",
                    "maxclass": "slider",
                    "numinlets": 1,
                    "numoutlets": 1,
                    "outlettype": [ "" ],
                    "parameter_enable": 0,
                    "patching_rect": [ 584.5172012448311, 326.72130012512207, 20.0, 140.0 ],
                    "size": 1000.0
                }
            },
            {
                "box": {
                    "format": 6,
                    "id": "obj-138",
                    "maxclass": "flonum",
                    "numinlets": 1,
                    "numoutlets": 2,
                    "outlettype": [ "", "bang" ],
                    "parameter_enable": 0,
                    "patching_rect": [ 569.5172012448311, 482.75864601135254, 50.0, 22.0 ]
                }
            },
            {
                "box": {
                    "format": 6,
                    "id": "obj-135",
                    "maxclass": "flonum",
                    "numinlets": 1,
                    "numoutlets": 2,
                    "outlettype": [ "", "bang" ],
                    "parameter_enable": 0,
                    "patching_rect": [ 526.5901503562927, 482.75864601135254, 50.0, 22.0 ]
                }
            },
            {
                "box": {
                    "id": "obj-133",
                    "maxclass": "number",
                    "numinlets": 1,
                    "numoutlets": 2,
                    "outlettype": [ "", "bang" ],
                    "parameter_enable": 0,
                    "patching_rect": [ 494.82761216163635, 282.75863552093506, 50.0, 22.0 ]
                }
            },
            {
                "box": {
                    "id": "obj-132",
                    "maxclass": "number",
                    "numinlets": 1,
                    "numoutlets": 2,
                    "outlettype": [ "", "bang" ],
                    "parameter_enable": 0,
                    "patching_rect": [ 474.5901503562927, 474.999986410141, 50.0, 22.0 ]
                }
            },
            {
                "box": {
                    "floatoutput": 1,
                    "id": "obj-130",
                    "maxclass": "slider",
                    "numinlets": 1,
                    "numoutlets": 1,
                    "outlettype": [ "" ],
                    "parameter_enable": 0,
                    "patching_rect": [ 474.5901503562927, 333.19671177864075, 59.01639175415039, 127.04917669296265 ],
                    "size": 1000.0
                }
            },
            {
                "box": {
                    "format": 6,
                    "id": "obj-125",
                    "maxclass": "flonum",
                    "numinlets": 1,
                    "numoutlets": 2,
                    "outlettype": [ "", "bang" ],
                    "parameter_enable": 0,
                    "patching_rect": [ 576.8116108775139, 150.0000043362379, 55.1537050306797, 22.0 ]
                }
            },
            {
                "box": {
                    "format": 6,
                    "id": "obj-124",
                    "maxclass": "flonum",
                    "numinlets": 1,
                    "numoutlets": 2,
                    "outlettype": [ "", "bang" ],
                    "parameter_enable": 0,
                    "patching_rect": [ 640.6320641040802, 213.09255409240723, 55.1537050306797, 22.0 ]
                }
            },
            {
                "box": {
                    "format": 6,
                    "id": "obj-123",
                    "maxclass": "flonum",
                    "numinlets": 1,
                    "numoutlets": 2,
                    "outlettype": [ "", "bang" ],
                    "parameter_enable": 0,
                    "patching_rect": [ 653.9503487348557, 137.0445315539837, 55.1537050306797, 22.0 ]
                }
            },
            {
                "box": {
                    "id": "obj-122",
                    "maxclass": "newobj",
                    "numinlets": 2,
                    "numoutlets": 1,
                    "outlettype": [ "float" ],
                    "patching_rect": [ 640.6320641040802, 179.90970933437347, 36.0, 22.0 ],
                    "text": "+ 5.5"
                }
            },
            {
                "box": {
                    "format": 6,
                    "id": "obj-120",
                    "maxclass": "flonum",
                    "numinlets": 1,
                    "numoutlets": 2,
                    "outlettype": [ "", "bang" ],
                    "parameter_enable": 0,
                    "patching_rect": [ 553.8177878260612, 217.1557595729828, 55.1537050306797, 22.0 ]
                }
            },
            {
                "box": {
                    "format": 6,
                    "id": "obj-119",
                    "maxclass": "flonum",
                    "numinlets": 1,
                    "numoutlets": 2,
                    "outlettype": [ "", "bang" ],
                    "parameter_enable": 0,
                    "patching_rect": [ 553.8479783982038, 114.49275693297386, 55.1537050306797, 22.0 ]
                }
            },
            {
                "box": {
                    "id": "obj-118",
                    "maxclass": "newobj",
                    "numinlets": 1,
                    "numoutlets": 2,
                    "outlettype": [ "bang", "int" ],
                    "patching_rect": [ 486.84209510684013, 169.0283365547657, 39.27125424146652, 22.0 ],
                    "text": "t b i"
                }
            },
            {
                "box": {
                    "id": "obj-114",
                    "maxclass": "number",
                    "numinlets": 1,
                    "numoutlets": 2,
                    "outlettype": [ "", "bang" ],
                    "parameter_enable": 0,
                    "patching_rect": [ 426.9230680167675, 239.47367921471596, 50.0, 22.0 ]
                }
            },
            {
                "box": {
                    "id": "obj-113",
                    "maxclass": "number",
                    "numinlets": 1,
                    "numoutlets": 2,
                    "outlettype": [ "", "bang" ],
                    "parameter_enable": 0,
                    "patching_rect": [ 427.12549716234207, 145.0283365547657, 50.0, 22.0 ]
                }
            },
            {
                "box": {
                    "id": "obj-112",
                    "maxclass": "number",
                    "numinlets": 1,
                    "numoutlets": 2,
                    "outlettype": [ "", "bang" ],
                    "parameter_enable": 0,
                    "patching_rect": [ 486.84209510684013, 137.0445315539837, 50.0, 22.0 ]
                }
            },
            {
                "box": {
                    "id": "obj-108",
                    "maxclass": "newobj",
                    "numinlets": 2,
                    "numoutlets": 1,
                    "outlettype": [ "int" ],
                    "patching_rect": [ 622.0689228773117, 267.93101611733437, 29.5, 22.0 ],
                    "text": "/"
                }
            },
            {
                "box": {
                    "id": "obj-107",
                    "maxclass": "newobj",
                    "numinlets": 2,
                    "numoutlets": 1,
                    "outlettype": [ "int" ],
                    "patching_rect": [ 589.971492856741, 267.93101611733437, 19.0, 22.0 ],
                    "text": "*"
                }
            },
            {
                "box": {
                    "id": "obj-106",
                    "maxclass": "newobj",
                    "numinlets": 2,
                    "numoutlets": 1,
                    "outlettype": [ "float" ],
                    "patching_rect": [ 558.3324605822563, 179.90970933437347, 46.18474066257477, 22.0 ],
                    "text": "- 0."
                }
            },
            {
                "box": {
                    "id": "obj-101",
                    "maxclass": "newobj",
                    "numinlets": 1,
                    "numoutlets": 0,
                    "patching_rect": [ 564.7343158423901, 85.74879474937916, 100.0, 22.0 ],
                    "text": "print"
                }
            },
            {
                "box": {
                    "format": 6,
                    "id": "obj-100",
                    "maxclass": "flonum",
                    "numinlets": 1,
                    "numoutlets": 2,
                    "outlettype": [ "", "bang" ],
                    "parameter_enable": 0,
                    "patching_rect": [ 621.7948780953884, 52.13675266504288, 55.1537050306797, 22.0 ]
                }
            },
            {
                "box": {
                    "id": "obj-98",
                    "maxclass": "number",
                    "numinlets": 1,
                    "numoutlets": 2,
                    "outlettype": [ "", "bang" ],
                    "parameter_enable": 0,
                    "patching_rect": [ 564.9572706818581, 52.13675266504288, 50.0, 22.0 ]
                }
            },
            {
                "box": {
                    "id": "obj-92",
                    "maxclass": "comment",
                    "numinlets": 1,
                    "numoutlets": 0,
                    "patching_rect": [ 98.03922176361084, 84.3529462814331, 19.0, 20.0 ],
                    "text": "B"
                }
            },
            {
                "box": {
                    "id": "obj-91",
                    "maxclass": "comment",
                    "numinlets": 1,
                    "numoutlets": 0,
                    "patching_rect": [ 363.7255127429962, 159.3529509305954, 19.0, 20.0 ],
                    "text": "A"
                }
            },
            {
                "box": {
                    "id": "obj-89",
                    "maxclass": "button",
                    "numinlets": 1,
                    "numoutlets": 1,
                    "outlettype": [ "bang" ],
                    "parameter_enable": 0,
                    "patching_rect": [ 145.09804821014404, 5.88235330581665, 24.0, 24.0 ]
                }
            },
            {
                "box": {
                    "id": "obj-88",
                    "maxclass": "newobj",
                    "numinlets": 1,
                    "numoutlets": 4,
                    "outlettype": [ "bang", "bang", "bang", "bang" ],
                    "patching_rect": [ 145.09804821014404, 37.74510037899017, 164.21569645404816, 22.0 ],
                    "text": "t b b b b"
                }
            },
            {
                "box": {
                    "id": "obj-87",
                    "maxclass": "button",
                    "numinlets": 1,
                    "numoutlets": 1,
                    "outlettype": [ "bang" ],
                    "parameter_enable": 0,
                    "patching_rect": [ 335.7843345403671, 192.6470707654953, 24.0, 24.0 ]
                }
            },
            {
                "box": {
                    "id": "obj-86",
                    "maxclass": "button",
                    "numinlets": 1,
                    "numoutlets": 1,
                    "outlettype": [ "bang" ],
                    "parameter_enable": 0,
                    "patching_rect": [ 141.1764793395996, 157.3529509305954, 24.0, 24.0 ]
                }
            },
            {
                "box": {
                    "id": "obj-85",
                    "maxclass": "button",
                    "numinlets": 1,
                    "numoutlets": 1,
                    "outlettype": [ "bang" ],
                    "parameter_enable": 0,
                    "patching_rect": [ 225.980406165123, 187.2549135684967, 24.0, 24.0 ]
                }
            },
            {
                "box": {
                    "id": "obj-84",
                    "maxclass": "button",
                    "numinlets": 1,
                    "numoutlets": 1,
                    "outlettype": [ "bang" ],
                    "parameter_enable": 0,
                    "patching_rect": [ 335.7843345403671, 157.3529509305954, 24.0, 24.0 ]
                }
            },
            {
                "box": {
                    "id": "obj-83",
                    "maxclass": "newobj",
                    "numinlets": 1,
                    "numoutlets": 0,
                    "patching_rect": [ 257.8431532382965, 245.0980544090271, 100.0, 22.0 ],
                    "text": "print anyword"
                }
            },
            {
                "box": {
                    "id": "obj-82",
                    "maxclass": "button",
                    "numinlets": 1,
                    "numoutlets": 1,
                    "outlettype": [ "bang" ],
                    "parameter_enable": 0,
                    "patching_rect": [ 70.09804356098175, 82.3529462814331, 24.0, 24.0 ]
                }
            },
            {
                "box": {
                    "id": "obj-80",
                    "maxclass": "button",
                    "numinlets": 1,
                    "numoutlets": 1,
                    "outlettype": [ "bang" ],
                    "parameter_enable": 0,
                    "patching_rect": [ 257.8431532382965, 142.64706766605377, 24.0, 24.0 ]
                }
            },
            {
                "box": {
                    "id": "obj-63",
                    "maxclass": "newobj",
                    "numinlets": 1,
                    "numoutlets": 0,
                    "patching_rect": [ 70.09804356098175, 204.92158126831055, 102.0, 22.0 ],
                    "text": "print anotherword"
                }
            },
            {
                "box": {
                    "id": "obj-60",
                    "maxclass": "button",
                    "numinlets": 1,
                    "numoutlets": 1,
                    "outlettype": [ "bang" ],
                    "parameter_enable": 0,
                    "patching_rect": [ 141.1764793395996, 107.84314393997192, 24.0, 24.0 ]
                }
            },
            {
                "box": {
                    "id": "obj-41",
                    "maxclass": "button",
                    "numinlets": 1,
                    "numoutlets": 1,
                    "outlettype": [ "bang" ],
                    "parameter_enable": 0,
                    "patching_rect": [ 79.0, 19.607844352722168, 24.0, 24.0 ]
                }
            },
            {
                "box": {
                    "id": "obj-37",
                    "maxclass": "button",
                    "numinlets": 1,
                    "numoutlets": 1,
                    "outlettype": [ "bang" ],
                    "parameter_enable": 0,
                    "patching_rect": [ 257.8431532382965, 107.84314393997192, 24.0, 24.0 ]
                }
            },
            {
                "box": {
                    "id": "obj-35",
                    "maxclass": "newobj",
                    "numinlets": 2,
                    "numoutlets": 2,
                    "outlettype": [ "bang", "" ],
                    "patching_rect": [ 752.1035957336426, 519.4175004959106, 100.0, 22.0 ],
                    "text": "sel"
                }
            },
            {
                "box": {
                    "id": "obj-34",
                    "maxclass": "newobj",
                    "numinlets": 2,
                    "numoutlets": 2,
                    "outlettype": [ "", "" ],
                    "patching_rect": [ 752.1035957336426, 488.34953784942627, 100.0, 22.0 ],
                    "text": "route"
                }
            },
            {
                "box": {
                    "id": "obj-33",
                    "maxclass": "newobj",
                    "numinlets": 3,
                    "numoutlets": 1,
                    "outlettype": [ "" ],
                    "patching_rect": [ 1123.0, 188.0, 100.0, 22.0 ],
                    "text": "switch"
                }
            },
            {
                "box": {
                    "id": "obj-32",
                    "maxclass": "newobj",
                    "numinlets": 2,
                    "numoutlets": 1,
                    "outlettype": [ "" ],
                    "patching_rect": [ 1123.0, 159.0, 100.0, 22.0 ],
                    "text": "gate"
                }
            },
            {
                "box": {
                    "id": "obj-31",
                    "maxclass": "newobj",
                    "numinlets": 5,
                    "numoutlets": 4,
                    "outlettype": [ "int", "", "", "int" ],
                    "patching_rect": [ 1123.0, 103.0, 100.0, 22.0 ],
                    "text": "counter"
                }
            },
            {
                "box": {
                    "id": "obj-30",
                    "maxclass": "newobj",
                    "numinlets": 2,
                    "numoutlets": 1,
                    "outlettype": [ "bang" ],
                    "patching_rect": [ 1123.0, 77.0, 100.0, 22.0 ],
                    "text": "metro"
                }
            },
            {
                "box": {
                    "id": "obj-29",
                    "maxclass": "newobj",
                    "numinlets": 4,
                    "numoutlets": 1,
                    "outlettype": [ "" ],
                    "patching_rect": [ 691.3697047233582, 295.58471143245697, 95.0, 22.0 ],
                    "text": "pack bgcolor i i f"
                }
            },
            {
                "box": {
                    "id": "obj-28",
                    "maxclass": "newobj",
                    "numinlets": 4,
                    "numoutlets": 1,
                    "outlettype": [ "" ],
                    "patching_rect": [ 724.0437477827072, 339.0581896305084, 141.0, 22.0 ],
                    "text": "pak bgcolor 255 255 255"
                }
            },
            {
                "box": {
                    "id": "obj-27",
                    "maxclass": "newobj",
                    "numinlets": 3,
                    "numoutlets": 1,
                    "outlettype": [ "" ],
                    "patching_rect": [ 922.7147301137447, 339.0581896305084, 107.0, 22.0 ],
                    "text": "join 3 @triggers -1"
                }
            },
            {
                "box": {
                    "id": "obj-25",
                    "maxclass": "comment",
                    "numinlets": 1,
                    "numoutlets": 0,
                    "patching_rect": [ 695.7982778549194, 73.94957542419434, 50.840333104133606, 20.0 ]
                }
            },
            {
                "box": {
                    "id": "obj-23",
                    "maxclass": "newobj",
                    "numinlets": 1,
                    "numoutlets": 1,
                    "outlettype": [ "" ],
                    "patching_rect": [ 900.0000429153442, 230.42072296142578, 83.0, 22.0 ],
                    "text": "append JANE"
                }
            },
            {
                "box": {
                    "id": "obj-22",
                    "maxclass": "newobj",
                    "numinlets": 1,
                    "numoutlets": 1,
                    "outlettype": [ "" ],
                    "patching_rect": [ 755.3398418426514, 95.94957542419434, 81.0, 22.0 ],
                    "text": "prepend BOB"
                }
            },
            {
                "box": {
                    "id": "obj-21",
                    "maxclass": "message",
                    "numinlets": 2,
                    "numoutlets": 1,
                    "outlettype": [ "" ],
                    "patching_rect": [ 724.3697047233582, 195.79830765724182, 62.0, 22.0 ],
                    "text": "100 $1 $2"
                }
            },
            {
                "box": {
                    "id": "obj-20",
                    "maxclass": "message",
                    "numinlets": 2,
                    "numoutlets": 1,
                    "outlettype": [ "" ],
                    "patching_rect": [ 793.2039213180542, 168.93746495246887, 99.0, 22.0 ],
                    "text": "hello world $1 $2"
                }
            },
            {
                "box": {
                    "id": "obj-8",
                    "maxclass": "newobj",
                    "numinlets": 2,
                    "numoutlets": 1,
                    "outlettype": [ "int" ],
                    "patching_rect": [ 427.12549716234207, 211.94331541657448, 59.401709496974945, 22.0 ],
                    "text": "+"
                }
            },
            {
                "box": {
                    "id": "obj-5",
                    "maxclass": "newobj",
                    "numinlets": 2,
                    "numoutlets": 1,
                    "outlettype": [ "bang" ],
                    "patching_rect": [ 1123.0392853021622, 129.90196883678436, 37.0, 22.0 ],
                    "text": "delay"
                }
            }
        ],
        "lines": [
            {
                "patchline": {
                    "destination": [ "obj-101", 0 ],
                    "source": [ "obj-100", 0 ]
                }
            },
            {
                "patchline": {
                    "destination": [ "obj-120", 0 ],
                    "source": [ "obj-106", 0 ]
                }
            },
            {
                "patchline": {
                    "destination": [ "obj-118", 0 ],
                    "source": [ "obj-112", 0 ]
                }
            },
            {
                "patchline": {
                    "destination": [ "obj-8", 0 ],
                    "source": [ "obj-113", 0 ]
                }
            },
            {
                "patchline": {
                    "destination": [ "obj-113", 0 ],
                    "source": [ "obj-118", 0 ]
                }
            },
            {
                "patchline": {
                    "destination": [ "obj-8", 1 ],
                    "source": [ "obj-118", 1 ]
                }
            },
            {
                "patchline": {
                    "destination": [ "obj-106", 0 ],
                    "source": [ "obj-119", 0 ]
                }
            },
            {
                "patchline": {
                    "destination": [ "obj-124", 0 ],
                    "source": [ "obj-122", 0 ]
                }
            },
            {
                "patchline": {
                    "destination": [ "obj-122", 0 ],
                    "source": [ "obj-123", 0 ]
                }
            },
            {
                "patchline": {
                    "destination": [ "obj-106", 1 ],
                    "source": [ "obj-125", 0 ]
                }
            },
            {
                "patchline": {
                    "destination": [ "obj-132", 0 ],
                    "order": 1,
                    "source": [ "obj-130", 0 ]
                }
            },
            {
                "patchline": {
                    "destination": [ "obj-135", 0 ],
                    "order": 0,
                    "source": [ "obj-130", 0 ]
                }
            },
            {
                "patchline": {
                    "destination": [ "obj-130", 0 ],
                    "source": [ "obj-133", 0 ]
                }
            },
            {
                "patchline": {
                    "destination": [ "obj-138", 0 ],
                    "source": [ "obj-140", 0 ]
                }
            },
            {
                "patchline": {
                    "destination": [ "obj-159", 0 ],
                    "source": [ "obj-160", 0 ]
                }
            },
            {
                "patchline": {
                    "destination": [ "obj-175", 0 ],
                    "source": [ "obj-174", 0 ]
                }
            },
            {
                "patchline": {
                    "destination": [ "obj-169", 0 ],
                    "source": [ "obj-175", 1 ]
                }
            },
            {
                "patchline": {
                    "destination": [ "obj-169", 0 ],
                    "source": [ "obj-175", 0 ]
                }
            },
            {
                "patchline": {
                    "destination": [ "obj-20", 0 ],
                    "source": [ "obj-177", 0 ]
                }
            },
            {
                "patchline": {
                    "destination": [ "obj-20", 0 ],
                    "source": [ "obj-178", 0 ]
                }
            },
            {
                "patchline": {
                    "destination": [ "obj-20", 0 ],
                    "source": [ "obj-180", 0 ]
                }
            },
            {
                "patchline": {
                    "destination": [ "obj-22", 0 ],
                    "source": [ "obj-182", 0 ]
                }
            },
            {
                "patchline": {
                    "destination": [ "obj-23", 0 ],
                    "source": [ "obj-184", 0 ]
                }
            },
            {
                "patchline": {
                    "destination": [ "obj-29", 0 ],
                    "source": [ "obj-187", 0 ]
                }
            },
            {
                "patchline": {
                    "destination": [ "obj-29", 1 ],
                    "source": [ "obj-189", 0 ]
                }
            },
            {
                "patchline": {
                    "destination": [ "obj-29", 2 ],
                    "source": [ "obj-190", 0 ]
                }
            },
            {
                "patchline": {
                    "destination": [ "obj-29", 3 ],
                    "source": [ "obj-191", 0 ]
                }
            },
            {
                "patchline": {
                    "destination": [ "obj-28", 2 ],
                    "midpoints": [ 846.499231338501, 332.74671455294447 ],
                    "source": [ "obj-192", 0 ]
                }
            },
            {
                "patchline": {
                    "destination": [ "obj-200", 0 ],
                    "order": 0,
                    "source": [ "obj-196", 0 ]
                }
            },
            {
                "patchline": {
                    "destination": [ "obj-205", 0 ],
                    "order": 1,
                    "source": [ "obj-196", 0 ]
                }
            },
            {
                "patchline": {
                    "destination": [ "obj-207", 0 ],
                    "order": 2,
                    "source": [ "obj-196", 0 ]
                }
            },
            {
                "patchline": {
                    "destination": [ "obj-209", 0 ],
                    "order": 3,
                    "source": [ "obj-196", 0 ]
                }
            },
            {
                "patchline": {
                    "destination": [ "obj-157", 0 ],
                    "source": [ "obj-20", 0 ]
                }
            },
            {
                "patchline": {
                    "destination": [ "obj-27", 0 ],
                    "source": [ "obj-202", 0 ]
                }
            },
            {
                "patchline": {
                    "destination": [ "obj-27", 1 ],
                    "source": [ "obj-203", 0 ]
                }
            },
            {
                "patchline": {
                    "destination": [ "obj-27", 2 ],
                    "source": [ "obj-204", 0 ]
                }
            },
            {
                "patchline": {
                    "destination": [ "obj-20", 0 ],
                    "source": [ "obj-22", 0 ]
                }
            },
            {
                "patchline": {
                    "destination": [ "obj-20", 0 ],
                    "source": [ "obj-23", 0 ]
                }
            },
            {
                "patchline": {
                    "destination": [ "obj-196", 0 ],
                    "source": [ "obj-27", 0 ]
                }
            },
            {
                "patchline": {
                    "destination": [ "obj-185", 0 ],
                    "source": [ "obj-28", 0 ]
                }
            },
            {
                "patchline": {
                    "destination": [ "obj-80", 0 ],
                    "source": [ "obj-37", 0 ]
                }
            },
            {
                "patchline": {
                    "destination": [ "obj-86", 0 ],
                    "source": [ "obj-60", 0 ]
                }
            },
            {
                "patchline": {
                    "destination": [ "obj-114", 0 ],
                    "source": [ "obj-8", 0 ]
                }
            },
            {
                "patchline": {
                    "destination": [ "obj-83", 0 ],
                    "order": 0,
                    "source": [ "obj-80", 0 ]
                }
            },
            {
                "patchline": {
                    "destination": [ "obj-85", 0 ],
                    "order": 1,
                    "source": [ "obj-80", 0 ]
                }
            },
            {
                "patchline": {
                    "destination": [ "obj-63", 0 ],
                    "source": [ "obj-82", 0 ]
                }
            },
            {
                "patchline": {
                    "destination": [ "obj-87", 0 ],
                    "source": [ "obj-84", 0 ]
                }
            },
            {
                "patchline": {
                    "destination": [ "obj-37", 0 ],
                    "source": [ "obj-88", 2 ]
                }
            },
            {
                "patchline": {
                    "destination": [ "obj-60", 0 ],
                    "source": [ "obj-88", 1 ]
                }
            },
            {
                "patchline": {
                    "destination": [ "obj-82", 0 ],
                    "source": [ "obj-88", 3 ]
                }
            },
            {
                "patchline": {
                    "destination": [ "obj-84", 0 ],
                    "source": [ "obj-88", 0 ]
                }
            },
            {
                "patchline": {
                    "destination": [ "obj-88", 0 ],
                    "source": [ "obj-89", 0 ]
                }
            },
            {
                "patchline": {
                    "destination": [ "obj-101", 0 ],
                    "source": [ "obj-98", 0 ]
                }
            }
        ],
        "parameters": {
            "inherited_shortname": 1
        },
        "autosave": 0,
        "toolbaradditions": [ "Vsynth", "User-Package", "Vizzie" ],
        "oscprefix": "max"
    }
}